<svg xmlns="http://www.w3.org/2000/svg" width="88.299" height="14.231" viewBox="0 0 88.299 14.231">
  <g id="Group_16" data-name="Group 16" transform="translate(-686 -928.73)">
    <path id="star_3_" data-name="star (3)" d="M14.811,5.87a.788.788,0,0,0-.679-.543L9.846,4.938,8.151.971A.789.789,0,0,0,6.7.972L5,4.938.718,5.327A.79.79,0,0,0,.27,6.708L3.51,9.55l-.955,4.208a.788.788,0,0,0,1.174.853l3.7-2.21,3.7,2.21a.789.789,0,0,0,1.174-.853L11.34,9.55l3.24-2.841A.79.79,0,0,0,14.811,5.87Zm0,0" transform="translate(686 928.238)" fill="#fe9d2b"/>
    <path id="star_3_2" data-name="star (3)" d="M14.811,5.87a.788.788,0,0,0-.679-.543L9.846,4.938,8.151.971A.789.789,0,0,0,6.7.972L5,4.938.718,5.327A.79.79,0,0,0,.27,6.708L3.51,9.55l-.955,4.208a.788.788,0,0,0,1.174.853l3.7-2.21,3.7,2.21a.789.789,0,0,0,1.174-.853L11.34,9.55l3.24-2.841A.79.79,0,0,0,14.811,5.87Zm0,0" transform="translate(722.724 928.238)" fill="#fe9d2b"/>
    <path id="star_3_3" data-name="star (3)" d="M14.811,5.87a.788.788,0,0,0-.679-.543L9.846,4.938,8.151.971A.789.789,0,0,0,6.7.972L5,4.938.718,5.327A.79.79,0,0,0,.27,6.708L3.51,9.55l-.955,4.208a.788.788,0,0,0,1.174.853l3.7-2.21,3.7,2.21a.789.789,0,0,0,1.174-.853L11.34,9.55l3.24-2.841A.79.79,0,0,0,14.811,5.87Zm0,0" transform="translate(740.804 928.238)" fill="#fe9d2b"/>
    <path id="star_3_4" data-name="star (3)" d="M14.811,5.87a.788.788,0,0,0-.679-.543L9.846,4.938,8.151.971A.789.789,0,0,0,6.7.972L5,4.938.718,5.327A.79.79,0,0,0,.27,6.708L3.51,9.55l-.955,4.208a.788.788,0,0,0,1.174.853l3.7-2.21,3.7,2.21a.789.789,0,0,0,1.174-.853L11.34,9.55l3.24-2.841A.79.79,0,0,0,14.811,5.87Zm0,0" transform="translate(759.448 928.238)" fill="#fe9d2b"/>
    <path id="star_3_5" data-name="star (3)" d="M14.811,5.87a.788.788,0,0,0-.679-.543L9.846,4.938,8.151.971A.789.789,0,0,0,6.7.972L5,4.938.718,5.327A.79.79,0,0,0,.27,6.708L3.51,9.55l-.955,4.208a.788.788,0,0,0,1.174.853l3.7-2.21,3.7,2.21a.789.789,0,0,0,1.174-.853L11.34,9.55l3.24-2.841A.79.79,0,0,0,14.811,5.87Zm0,0" transform="translate(704.08 928.238)" fill="#fe9d2b"/>
  </g>
</svg>
