<svg xmlns="http://www.w3.org/2000/svg" width="102" height="105.717" viewBox="0 0 102 105.717"><defs><style>.a{fill:#0d988c;}</style></defs><g transform="translate(-9)"><path class="a" d="M90.651,209H84.1a3.1,3.1,0,0,0-3.1,3.107l.046,23.527a3.1,3.1,0,1,0,6.194,0v-7.144c1.266-.006,2.619-.012,3.411-.012a9.74,9.74,0,1,0,0-19.479Zm0,13.284c-.8,0-2.157.006-3.428.012-.007-1.319-.012-2.739-.012-3.557,0-.7,0-2.167-.007-3.545h3.447a3.547,3.547,0,1,1,0,7.09Z" transform="translate(-57.134 -165.846)"/><path class="a" d="M218.566,209H212.1a3.1,3.1,0,0,0-3.1,3.1s.046,22.763.046,22.846a3.1,3.1,0,0,0,3.1,3.086h.012c.2,0,4.81-.018,6.654-.051,7-.122,12.078-6.207,12.078-14.467,0-8.683-4.952-14.517-12.321-14.517Zm.135,22.791c-.8.014-2.182.025-3.471.034-.009-2.69-.026-13.835-.03-16.63h3.366c5.685,0,6.127,6.371,6.127,8.323C224.693,227.584,222.84,231.719,218.7,231.791Z" transform="translate(-158.704 -165.846)"/><path class="a" d="M365.567,214.036a3.1,3.1,0,1,0,0-6.194H356.1a3.1,3.1,0,0,0-3.1,3.1V234.3a3.1,3.1,0,1,0,6.194,0V225.5h5.62a3.1,3.1,0,0,0,0-6.194h-5.62v-5.267Z" transform="translate(-272.972 -164.927)"/><path class="a" d="M101.709,29.939H99.437v-.884A15.425,15.425,0,0,0,95.19,18.4L82.325,4.831A15.551,15.551,0,0,0,71.087,0H29.854a9.3,9.3,0,0,0-9.291,9.291V29.939H18.291A9.3,9.3,0,0,0,9,39.231V76.4a9.3,9.3,0,0,0,9.291,9.291h2.271V96.425a9.3,9.3,0,0,0,9.291,9.291H90.146a9.3,9.3,0,0,0,9.291-9.291V85.688h2.271A9.3,9.3,0,0,0,111,76.4V39.231A9.3,9.3,0,0,0,101.709,29.939ZM26.757,9.291a3.1,3.1,0,0,1,3.1-3.1H71.087a9.33,9.33,0,0,1,6.743,2.9l12.865,13.57a9.254,9.254,0,0,1,2.549,6.393v.884H26.757ZM93.243,96.425a3.1,3.1,0,0,1-3.1,3.1H29.854a3.1,3.1,0,0,1-3.1-3.1V85.688H93.243ZM104.806,76.4a3.1,3.1,0,0,1-3.1,3.1H18.291a3.1,3.1,0,0,1-3.1-3.1V39.231a3.1,3.1,0,0,1,3.1-3.1h83.417a3.1,3.1,0,0,1,3.1,3.1Z"/></g></svg>